<svg width="60" height="60" viewBox="0 0 60 60" fill="none" xmlns="http://www.w3.org/2000/svg">
<path d="M37.5 37.5H22.5V35H37.5V37.5ZM37.5 40H22.5V42.5H37.5V40ZM37.5 45H22.5V47.5H37.5V45ZM57.5 33.75C57.5 36.875 56.4 39.525 54.225 41.725C52.025 43.9 49.375 45 46.25 45H45V55H15V44.875C11.75 44.625 8.925 43.4 6.525 41.075C3.85 38.45 2.5 35.225 2.5 31.45C2.5 28.2 3.475 25.3 5.425 22.75C7.375 20.2 10 18.575 13.125 17.875C14.175 14.05 16.25 10.95 19.375 8.575C22.5 6.2 26.05 5 30 5C34.875 5 39 6.7 42.4 10.1C45.8 13.5 47.5 17.625 47.5 22.5C50.375 22.825 52.75 24.075 54.65 26.25C56.55 28.375 57.5 30.875 57.5 33.75ZM15 39.875V27.5H42.5V22.5C42.5 19.05 41.25 16.1 38.85 13.65C36.4 11.25 33.45 10 30 10C26.55 10 23.6 11.25 21.15 13.65C18.75 16.1 17.5 19.05 17.5 22.5H16.25C13.825 22.5 11.775 23.35 10.075 25.075C8.35 26.775 7.5 28.825 7.5 31.25C7.5 33.675 8.35 35.725 10.075 37.5C11.475 38.85 13.125 39.625 15 39.875ZM40 32.5H20V50H40V32.5ZM52.5 33.75C52.5 32 51.9 30.525 50.675 29.325C49.45 28.125 48 27.5 46.25 27.5H45V40H46.25C48 40 49.475 39.4 50.675 38.2C51.875 37 52.5 35.5 52.5 33.75Z" fill="#FB8500"/>
</svg>
