<svg width="60" height="60" viewBox="0 0 60 60" fill="none" xmlns="http://www.w3.org/2000/svg">
<path d="M37.5 33.75H26.25C24.7582 33.75 23.3274 34.3426 22.2725 35.3975C21.2176 36.4524 20.625 37.8832 20.625 39.375V43.125H24.375V39.375C24.375 38.8777 24.5725 38.4008 24.9242 38.0492C25.2758 37.6975 25.7527 37.5 26.25 37.5H37.5C37.9973 37.5 38.4742 37.6975 38.8258 38.0492C39.1775 38.4008 39.375 38.8777 39.375 39.375V43.125H43.125V39.375C43.125 37.8832 42.5324 36.4524 41.4775 35.3975C40.4226 34.3426 38.9918 33.75 37.5 33.75ZM31.875 31.875C33.8641 31.875 35.7718 31.0848 37.1783 29.6783C38.5848 28.2718 39.375 26.3641 39.375 24.375C39.375 22.3859 38.5848 20.4782 37.1783 19.0717C35.7718 17.6652 33.8641 16.875 31.875 16.875C29.8859 16.875 27.9782 17.6652 26.5717 19.0717C25.1652 20.4782 24.375 22.3859 24.375 24.375C24.375 26.3641 25.1652 28.2718 26.5717 29.6783C27.9782 31.0848 29.8859 31.875 31.875 31.875ZM31.875 20.625C32.8696 20.625 33.8234 21.0201 34.5266 21.7234C35.2299 22.4266 35.625 23.3804 35.625 24.375C35.625 25.3696 35.2299 26.3234 34.5266 27.0266C33.8234 27.7299 32.8696 28.125 31.875 28.125C30.8804 28.125 29.9266 27.7299 29.2234 27.0266C28.5201 26.3234 28.125 25.3696 28.125 24.375C28.125 23.3804 28.5201 22.4266 29.2234 21.7234C29.9266 21.0201 30.8804 20.625 31.875 20.625Z" fill="#FB8500"/>
<path d="M31.875 56.25C17.4 56.25 5.625 44.475 5.625 30H9.375C9.375 42.4069 19.4681 52.5 31.875 52.5C41.6737 52.5 50.28 46.2413 53.2894 36.9244L56.8594 38.0756C55.1615 43.3637 51.8257 47.9747 47.3344 51.2418C42.843 54.5089 37.4289 56.2629 31.875 56.25ZM58.125 30H54.375C54.375 17.5931 44.2819 7.5 31.875 7.5V3.75C46.35 3.75 58.125 15.525 58.125 30ZM11.25 26.25L7.23938 24.3506C5.63748 23.587 4.28397 22.3863 3.33486 20.8868C2.38576 19.3874 1.87969 17.6502 1.875 15.8756V3.75H20.625V15.8775C20.6205 17.6521 20.1146 19.3894 19.1654 20.8889C18.2163 22.3884 16.8627 23.5891 15.2606 24.3525L11.25 26.25ZM5.625 7.5V15.8775C5.62788 16.9419 5.93167 17.9837 6.50131 18.8828C7.07095 19.7819 7.88323 20.5015 8.84438 20.9588L11.25 22.1006L13.6556 20.9625C14.6171 20.5047 15.4295 19.7843 15.9991 18.8846C16.5687 17.9848 16.8724 16.9424 16.875 15.8775V7.5H5.625Z" fill="#FB8500"/>
</svg>
