<svg width="56" height="45" viewBox="0 0 56 45" fill="none" xmlns="http://www.w3.org/2000/svg">
<path d="M14.25 35H30.5V40H14.25C10.5 40 7.225 38.75 4.525 36.075C1.85 33.45 0.5 30.225 0.5 26.45C0.5 23.2 1.475 20.3 3.425 17.75C5.375 15.2 8 13.575 11.125 12.875C12.175 9.05 14.25 5.95 17.375 3.575C20.5 1.2 24.05 0 28 0C32.875 0 37 1.7 40.4 5.1C43.2 7.9 44.825 11.25 45.325 15C43.575 15 41.9 15.475 40.375 16.15C40.1292 13.3104 38.8794 10.6513 36.85 8.65C34.4 6.25 31.45 5 28 5C24.55 5 21.6 6.25 19.15 8.65C16.75 11.1 15.5 14.05 15.5 17.5H14.25C11.825 17.5 9.775 18.35 8.075 20.075C6.35 21.775 5.5 23.825 5.5 26.25C5.5 28.675 6.35 30.725 8.075 32.5C9.775 34.15 11.825 35 14.25 35ZM55.5 33.25V42C55.5 43.5 54 45 52.25 45H38.5C37 45 35.5 43.5 35.5 41.75V33C35.5 31.5 37 30 38.5 30V26.25C38.5 22.75 42 20 45.5 20C49 20 52.5 22.75 52.5 26.25V30C54 30 55.5 31.5 55.5 33.25ZM49.25 26.25C49.25 24.25 47.5 23 45.5 23C43.5 23 41.75 24.25 41.75 26.25V30H49.25V26.25Z" fill="#FB8500"/>
</svg>
