<svg width="170" height="46" viewBox="0 0 170 46" fill="none" xmlns="http://www.w3.org/2000/svg">
<path d="M20.832 36.176C20.4267 37.5413 19.7867 38.6827 18.912 39.6C18.0373 40.5173 17.0027 41.2 15.808 41.648C14.6133 42.096 13.3013 42.32 11.872 42.32C9.78133 42.32 7.968 41.8827 6.432 41.008C4.91733 40.1333 3.744 38.8853 2.912 37.264C2.10133 35.6427 1.696 33.7013 1.696 31.44C1.696 29.1787 2.10133 27.2373 2.912 25.616C3.744 23.9947 4.91733 22.7467 6.432 21.872C7.968 20.9973 9.76 20.56 11.808 20.56C13.2587 20.56 14.5707 20.7627 15.744 21.168C16.9173 21.552 17.9093 22.1493 18.72 22.96C19.552 23.7707 20.16 24.7947 20.544 26.032L16.544 27.728C16.1813 26.448 15.6267 25.5413 14.88 25.008C14.1333 24.4533 13.1733 24.176 12 24.176C10.848 24.176 9.83467 24.4533 8.96 25.008C8.10667 25.5627 7.44533 26.384 6.976 27.472C6.50667 28.5387 6.272 29.8613 6.272 31.44C6.272 32.9973 6.48533 34.32 6.912 35.408C7.36 36.496 8.01067 37.3173 8.864 37.872C9.71733 38.4267 10.7627 38.704 12 38.704C13.152 38.704 14.144 38.3947 14.976 37.776C15.8293 37.1573 16.4267 36.2187 16.768 34.96L20.832 36.176ZM27.8278 18.992V37.072C27.8278 37.8187 27.9558 38.3413 28.2118 38.64C28.4678 38.9387 28.8944 39.088 29.4918 39.088C29.8544 39.088 30.1531 39.0667 30.3878 39.024C30.6224 38.96 30.9211 38.8747 31.2838 38.768L30.8998 41.648C30.5371 41.8613 30.0784 42.0213 29.5238 42.128C28.9904 42.256 28.4571 42.32 27.9238 42.32C26.3664 42.32 25.2251 41.9467 24.4998 41.2C23.7958 40.432 23.4438 39.216 23.4438 37.552V18.992H27.8278ZM40.3825 25.68C42.0038 25.68 43.4225 26.0107 44.6385 26.672C45.8758 27.3333 46.8358 28.2827 47.5185 29.52C48.2225 30.7573 48.5745 32.2507 48.5745 34C48.5745 35.728 48.2225 37.2213 47.5185 38.48C46.8358 39.7173 45.8758 40.6667 44.6385 41.328C43.4225 41.9893 42.0038 42.32 40.3825 42.32C38.7825 42.32 37.3638 41.9893 36.1265 41.328C34.8892 40.6667 33.9185 39.7173 33.2145 38.48C32.5318 37.2213 32.1905 35.728 32.1905 34C32.1905 32.2507 32.5318 30.7573 33.2145 29.52C33.9185 28.2827 34.8892 27.3333 36.1265 26.672C37.3638 26.0107 38.7825 25.68 40.3825 25.68ZM40.3825 28.944C39.5718 28.944 38.8785 29.136 38.3025 29.52C37.7478 29.8827 37.3212 30.4373 37.0225 31.184C36.7238 31.9307 36.5745 32.8693 36.5745 34C36.5745 35.1307 36.7238 36.0693 37.0225 36.816C37.3212 37.5627 37.7478 38.128 38.3025 38.512C38.8785 38.8747 39.5718 39.056 40.3825 39.056C41.1718 39.056 41.8438 38.8747 42.3985 38.512C42.9745 38.128 43.4118 37.5627 43.7105 36.816C44.0092 36.0693 44.1585 35.1307 44.1585 34C44.1585 32.8693 44.0092 31.9307 43.7105 31.184C43.4118 30.4373 42.9745 29.8827 42.3985 29.52C41.8438 29.136 41.1718 28.944 40.3825 28.944ZM57.1708 42.32C56.1041 42.32 55.1441 42.128 54.2908 41.744C53.4374 41.36 52.7548 40.752 52.2428 39.92C51.7521 39.0667 51.5068 37.968 51.5068 36.624V26H55.8908V35.568C55.8908 36.8053 56.1468 37.6693 56.6588 38.16C57.1708 38.6293 57.9068 38.864 58.8668 38.864C59.3148 38.864 59.7521 38.7893 60.1788 38.64C60.6054 38.4693 60.9788 38.2133 61.2988 37.872C61.6401 37.5307 61.9068 37.0933 62.0988 36.56C62.2908 36.0053 62.3868 35.3547 62.3868 34.608V26H66.7708V42H62.8668L62.7068 39.216C62.1734 40.2827 61.4374 41.072 60.4988 41.584C59.5814 42.0747 58.4721 42.32 57.1708 42.32ZM76.792 42.32C75.4693 42.32 74.2853 41.9893 73.24 41.328C72.216 40.6667 71.4053 39.7173 70.808 38.48C70.232 37.2427 69.944 35.76 69.944 34.032C69.944 32.2613 70.2533 30.7573 70.872 29.52C71.4907 28.2613 72.3227 27.312 73.368 26.672C74.4347 26.0107 75.6293 25.68 76.952 25.68C78.36 25.68 79.5227 26.0853 80.44 26.896C81.3573 27.7067 81.9547 28.752 82.232 30.032L81.816 30.544V18.992H86.2V42H82.264L81.976 37.136L82.52 37.392C82.3707 38.3947 82.0293 39.2693 81.496 40.016C80.9627 40.7413 80.2907 41.3067 79.48 41.712C78.6693 42.1173 77.7733 42.32 76.792 42.32ZM78.072 38.96C78.84 38.96 79.5013 38.768 80.056 38.384C80.6107 37.9787 81.0373 37.392 81.336 36.624C81.656 35.856 81.816 34.9387 81.816 33.872C81.816 32.848 81.6667 31.984 81.368 31.28C81.0693 30.5547 80.6427 30 80.088 29.616C79.5333 29.232 78.8827 29.04 78.136 29.04C76.9413 29.04 76.0027 29.4667 75.32 30.32C74.6587 31.152 74.328 32.3787 74.328 34C74.328 35.6213 74.6587 36.8587 75.32 37.712C75.9813 38.544 76.8987 38.96 78.072 38.96ZM94.6145 42L88.4705 20.88H93.1745L97.3345 38.32L101.559 20.88H105.783L110.071 38.32L114.199 20.88H118.711L112.567 42H107.607L104.663 30.48L103.671 25.488H103.607L102.615 30.48L99.7025 42H94.6145ZM128.865 31.792C128.865 30.8747 128.599 30.16 128.065 29.648C127.553 29.136 126.871 28.88 126.017 28.88C125.228 28.88 124.535 29.0827 123.937 29.488C123.34 29.8933 122.903 30.5653 122.625 31.504L118.881 30.352C119.244 28.944 120.033 27.8133 121.249 26.96C122.487 26.1067 124.14 25.68 126.209 25.68C127.617 25.68 128.844 25.904 129.889 26.352C130.935 26.7787 131.745 27.4293 132.321 28.304C132.919 29.1787 133.217 30.2773 133.217 31.6V38.096C133.217 38.9067 133.601 39.312 134.369 39.312C134.732 39.312 135.073 39.2587 135.393 39.152L135.137 41.872C134.583 42.1493 133.889 42.288 133.057 42.288C132.311 42.288 131.639 42.16 131.041 41.904C130.444 41.648 129.975 41.264 129.633 40.752C129.292 40.2187 129.121 39.5573 129.121 38.768V38.64L129.889 38.512C129.761 39.3227 129.409 40.016 128.833 40.592C128.257 41.1467 127.553 41.5733 126.721 41.872C125.911 42.1707 125.068 42.32 124.193 42.32C123.105 42.32 122.167 42.16 121.377 41.84C120.588 41.4987 119.98 41.008 119.553 40.368C119.127 39.728 118.913 38.9387 118.913 38C118.913 36.8053 119.297 35.8347 120.065 35.088C120.833 34.32 121.932 33.7973 123.361 33.52L129.377 32.304L129.345 35.024L125.505 35.792C124.78 35.9413 124.225 36.144 123.841 36.4C123.479 36.6347 123.297 37.0293 123.297 37.584C123.297 38.1173 123.489 38.5227 123.873 38.8C124.279 39.0773 124.759 39.216 125.313 39.216C125.761 39.216 126.199 39.1627 126.625 39.056C127.052 38.9493 127.436 38.7787 127.777 38.544C128.119 38.3093 128.385 37.9893 128.577 37.584C128.769 37.1787 128.865 36.688 128.865 36.112V31.792ZM147.351 26H151.895L145.815 42H140.759L134.679 26H139.351L143.319 38.64L147.351 26ZM160.921 42.32C159.235 42.32 157.763 41.9893 156.505 41.328C155.267 40.6667 154.307 39.7173 153.625 38.48C152.942 37.2427 152.601 35.7493 152.601 34C152.601 32.2507 152.942 30.7573 153.625 29.52C154.307 28.2827 155.257 27.3333 156.473 26.672C157.71 26.0107 159.118 25.68 160.697 25.68C162.318 25.68 163.694 26.0107 164.825 26.672C165.955 27.312 166.819 28.1973 167.417 29.328C168.014 30.4373 168.313 31.7067 168.313 33.136C168.313 33.5627 168.302 33.968 168.281 34.352C168.259 34.736 168.227 35.0773 168.185 35.376H155.417V32.336H166.265L164.153 33.104C164.153 31.76 163.843 30.7253 163.225 30C162.627 29.2747 161.774 28.912 160.665 28.912C159.854 28.912 159.15 29.104 158.553 29.488C157.977 29.872 157.539 30.448 157.241 31.216C156.942 31.9627 156.793 32.912 156.793 34.064C156.793 35.1947 156.953 36.1333 157.273 36.88C157.614 37.6053 158.083 38.1493 158.681 38.512C159.299 38.8747 160.035 39.056 160.889 39.056C161.827 39.056 162.585 38.8747 163.161 38.512C163.737 38.1493 164.185 37.648 164.505 37.008L167.993 38.352C167.651 39.184 167.129 39.8987 166.425 40.496C165.742 41.0933 164.921 41.552 163.961 41.872C163.022 42.1707 162.009 42.32 160.921 42.32Z" fill="#FB8500"/>
<path d="M100 18.8973C100 23.5917 85.4493 0 67.5 0C49.5507 0 35 23.5917 35 18.8973C35 14.2029 49.5507 10.3973 67.5 10.3973C85.4493 10.3973 100 14.2029 100 18.8973Z" fill="#FB8500"/>
</svg>
