<svg width="71" height="28" viewBox="0 0 71 28" fill="none" xmlns="http://www.w3.org/2000/svg">
<path d="M7.8 21.68H21.04V27H0.92V0.599999H7.8V21.68ZM70.6106 19.44C70.104 21.28 69.2906 22.8 68.1706 24C67.0506 25.1733 65.7173 26.04 64.1706 26.6C62.624 27.1333 60.9173 27.4 59.0506 27.4C56.384 27.4 54.0773 26.8667 52.1306 25.8C50.184 24.7067 48.6906 23.1467 47.6506 21.12C46.6106 19.0933 46.0906 16.6533 46.0906 13.8C46.0906 10.9467 46.6106 8.50667 47.6506 6.48C48.6906 4.45333 50.184 2.90667 52.1306 1.84C54.0773 0.746666 56.3706 0.199999 59.0106 0.199999C60.8506 0.199999 62.544 0.466666 64.0906 0.999999C65.6373 1.50667 66.944 2.29333 68.0106 3.36C69.0773 4.42667 69.8373 5.8 70.2906 7.48L64.2506 9.92C63.8773 8.26667 63.264 7.13333 62.4106 6.52C61.584 5.90667 60.5306 5.6 59.2506 5.6C57.9973 5.6 56.904 5.90667 55.9706 6.52C55.064 7.13333 54.3573 8.05333 53.8506 9.28C53.3706 10.48 53.1306 11.9867 53.1306 13.8C53.1306 15.5867 53.3573 17.0933 53.8106 18.32C54.264 19.5467 54.944 20.4667 55.8506 21.08C56.784 21.6933 57.9306 22 59.2906 22C60.5706 22 61.6506 21.6533 62.5306 20.96C63.4373 20.24 64.0506 19.1467 64.3706 17.68L70.6106 19.44Z" fill="#DC7500"/>
<path d="M23.6625 27V22.6C25.9292 21.1867 27.8625 19.8667 29.4625 18.64C31.0625 17.4133 32.3558 16.2533 33.3425 15.16C34.3558 14.0667 35.1025 13.0267 35.5825 12.04C36.0625 11.0533 36.3025 10.0933 36.3025 9.16C36.3025 8.14667 35.9958 7.30667 35.3825 6.64C34.7958 5.94667 33.9158 5.6 32.7425 5.6C31.4892 5.6 30.5158 6.06667 29.8225 7C29.1292 7.90667 28.7558 9.24 28.7025 11L22.8225 9.2C22.8758 7.22666 23.3425 5.57333 24.2225 4.24C25.1292 2.90667 26.3558 1.90667 27.9025 1.24C29.4492 0.546666 31.2092 0.199999 33.1825 0.199999C34.9158 0.199999 36.4092 0.453333 37.6625 0.959999C38.9425 1.44 39.9825 2.09333 40.7825 2.92C41.5825 3.72 42.1692 4.62667 42.5425 5.64C42.9425 6.62667 43.1425 7.64 43.1425 8.68C43.1425 10.3867 42.7025 11.9867 41.8225 13.48C40.9425 14.9467 39.6625 16.3733 37.9825 17.76C36.3292 19.12 34.3158 20.4933 31.9425 21.88V21.92C32.3958 21.8933 32.9292 21.8667 33.5425 21.84C34.1558 21.8133 34.7958 21.8 35.4625 21.8C36.1292 21.7733 36.7292 21.76 37.2625 21.76H43.4625V27H23.6625Z" fill="black"/>
</svg>
